# xmcd CD database file
#
# Track frame offsets:
#	150
#	10017
#	160065
#	202642
#	212997
#	252425
#	307088
#
# Disc length: 4216 seconds
#
# Revision: 0
# Processed by: cddbd v1.5.2PL0 Copyright (c) Steve Scherf et al.
# Submitted via: CDex 1.50
#
DISCID=55107607
DTITLE=Berger Keijser Westling - The Vedbod Tapes
DYEAR=2012
DGENRE=Jazz
TTITLE0=Polska efter Blecka
TTITLE1=Woodshedding
TTITLE2=Karnatic Investigation
TTITLE3=Bröllopsmarsch efter Blecka
TTITLE4=Chuida
TTITLE5=Woodshedding 2
TTITLE6=Polska efter Bränd Jon Larsson
EXTD=YEAR: 2012
EXTT0=
EXTT1=
EXTT2=
EXTT3=
EXTT4=
EXTT5=
EXTT6=
PLAYORDER=
